<mxfile host="65bd71144e">
    <diagram id="LKaKQfK8-kJvVLxzSaqW" name="Página-1">
        <mxGraphModel dx="898" dy="658" grid="1" gridSize="10" guides="1" tooltips="1" connect="1" arrows="1" fold="1" page="1" pageScale="1" pageWidth="1600" pageHeight="1200" background="#ffffff" math="0" shadow="0">
            <root>
                <mxCell id="0"/>
                <mxCell id="1" parent="0"/>
                <mxCell id="359" value="Propietario de contactos" style="shape=umlActor;verticalLabelPosition=bottom;verticalAlign=top;html=1;fillColor=#76608a;strokeColor=#432D57;fontColor=#000000;fontSize=14;" vertex="1" parent="1">
                    <mxGeometry x="160" y="120" width="30" height="60" as="geometry"/>
                </mxCell>
                <mxCell id="360" value="" style="endArrow=none;startArrow=none;endFill=0;startFill=0;endSize=8;html=1;verticalAlign=bottom;labelBackgroundColor=none;strokeWidth=3;fillColor=#76608a;strokeColor=#432D57;dashed=1;fontSize=14;" edge="1" parent="1">
                    <mxGeometry width="160" relative="1" as="geometry">
                        <mxPoint x="175" y="200" as="sourcePoint"/>
                        <mxPoint x="180" y="1120" as="targetPoint"/>
                    </mxGeometry>
                </mxCell>
                <mxCell id="361" value="VPrincipal" style="shape=umlLifeline;perimeter=lifelinePerimeter;whiteSpace=wrap;html=1;container=1;collapsible=0;recursiveResize=0;outlineConnect=0;fillColor=#008a00;strokeColor=#005700;fontColor=#ffffff;fontSize=14;" vertex="1" parent="1">
                    <mxGeometry x="410" y="215" width="100" height="230" as="geometry"/>
                </mxCell>
                <mxCell id="362" value="" style="html=1;points=[];perimeter=orthogonalPerimeter;fillColor=#008a00;strokeColor=#005700;fontColor=#ffffff;fontSize=14;" vertex="1" parent="361">
                    <mxGeometry x="45" y="80" width="10" height="120" as="geometry"/>
                </mxCell>
                <mxCell id="363" value="ControlGUI" style="shape=umlLifeline;perimeter=lifelinePerimeter;whiteSpace=wrap;html=1;container=1;collapsible=0;recursiveResize=0;outlineConnect=0;strokeColor=#3700CC;fillColor=#6a00ff;fontColor=#ffffff;fontSize=14;" vertex="1" parent="1">
                    <mxGeometry x="630" y="135" width="100" height="1040" as="geometry"/>
                </mxCell>
                <mxCell id="364" value="" style="html=1;points=[];perimeter=orthogonalPerimeter;fillColor=#6a00ff;strokeColor=#3700CC;fontColor=#ffffff;fontSize=14;" vertex="1" parent="363">
                    <mxGeometry x="45" y="70" width="10" height="950" as="geometry"/>
                </mxCell>
                <mxCell id="365" value="GestorContactos" style="shape=umlLifeline;perimeter=lifelinePerimeter;whiteSpace=wrap;html=1;container=1;collapsible=0;recursiveResize=0;outlineConnect=0;fillColor=#a20025;strokeColor=#6F0000;fontColor=#ffffff;fontSize=14;" vertex="1" parent="1">
                    <mxGeometry x="890" y="115" width="100" height="1040" as="geometry"/>
                </mxCell>
                <mxCell id="366" value="" style="html=1;points=[];perimeter=orthogonalPerimeter;fillColor=#a20025;strokeColor=#6F0000;fontColor=#ffffff;fontSize=14;" vertex="1" parent="365">
                    <mxGeometry x="45" y="70" width="10" height="950" as="geometry"/>
                </mxCell>
                <mxCell id="367" value="Agregar" style="html=1;verticalAlign=bottom;labelBackgroundColor=none;endArrow=open;endFill=0;fontColor=#006600;strokeWidth=3;fillColor=#f0a30a;strokeColor=#BD7000;fontSize=14;" edge="1" parent="1" target="362">
                    <mxGeometry width="160" relative="1" as="geometry">
                        <mxPoint x="170" y="335" as="sourcePoint"/>
                        <mxPoint x="430" y="335" as="targetPoint"/>
                    </mxGeometry>
                </mxCell>
                <mxCell id="368" value="guardarContacto()" style="html=1;verticalAlign=bottom;labelBackgroundColor=none;endArrow=open;endFill=0;fontColor=#006600;strokeWidth=3;fillColor=#f0a30a;strokeColor=#BD7000;fontSize=14;" edge="1" parent="1">
                    <mxGeometry width="160" relative="1" as="geometry">
                        <mxPoint x="470" y="655.21" as="sourcePoint"/>
                        <mxPoint x="675" y="654.71" as="targetPoint"/>
                        <Array as="points">
                            <mxPoint x="560" y="654.71"/>
                        </Array>
                    </mxGeometry>
                </mxCell>
                <mxCell id="369" value="Create" style="html=1;verticalAlign=bottom;labelBackgroundColor=none;endArrow=open;endFill=0;fontColor=#006600;strokeWidth=3;fillColor=#f0a30a;strokeColor=#BD7000;fontSize=14;" edge="1" parent="1" source="364">
                    <mxGeometry width="160" relative="1" as="geometry">
                        <mxPoint x="850" y="235" as="sourcePoint"/>
                        <mxPoint x="510" y="235" as="targetPoint"/>
                    </mxGeometry>
                </mxCell>
                <mxCell id="370" value="agregarButtonAction()" style="html=1;verticalAlign=bottom;labelBackgroundColor=none;endArrow=open;endFill=0;fontColor=#006600;strokeWidth=3;fillColor=#f0a30a;strokeColor=#BD7000;fontSize=14;" edge="1" parent="1" source="362" target="364">
                    <mxGeometry width="160" relative="1" as="geometry">
                        <mxPoint x="480" y="334.9999999999998" as="sourcePoint"/>
                        <mxPoint x="780" y="334.9999999999998" as="targetPoint"/>
                        <Array as="points">
                            <mxPoint x="590" y="335"/>
                        </Array>
                    </mxGeometry>
                </mxCell>
                <mxCell id="371" value="analizadorSintactico(Contacto)" style="html=1;verticalAlign=bottom;labelBackgroundColor=none;endArrow=open;endFill=0;fontColor=#006600;strokeWidth=3;fillColor=#f0a30a;strokeColor=#BD7000;fontSize=14;" edge="1" parent="1" source="364">
                    <mxGeometry x="0.6044" y="12" width="160" relative="1" as="geometry">
                        <mxPoint x="710" y="655" as="sourcePoint"/>
                        <mxPoint x="1140" y="656.9999999999995" as="targetPoint"/>
                        <mxPoint as="offset"/>
                    </mxGeometry>
                </mxCell>
                <mxCell id="372" value="Crear contacto" style="edgeStyle=orthogonalEdgeStyle;html=1;align=left;spacingLeft=2;endArrow=block;rounded=0;entryX=1;entryY=0;fillColor=#60a917;strokeColor=#2D7600;shadow=0;fontColor=#000000;labelBackgroundColor=#ffffff;fontSize=14;" edge="1" parent="1" target="377">
                    <mxGeometry relative="1" as="geometry">
                        <mxPoint x="460" y="605" as="sourcePoint"/>
                        <Array as="points">
                            <mxPoint x="490" y="605"/>
                            <mxPoint x="490" y="635"/>
                        </Array>
                    </mxGeometry>
                </mxCell>
                <mxCell id="373" value="VEditar" style="shape=umlLifeline;perimeter=lifelinePerimeter;whiteSpace=wrap;html=1;container=1;collapsible=0;recursiveResize=0;outlineConnect=0;fillColor=#008a00;strokeColor=#005700;fontColor=#ffffff;fontSize=14;" vertex="1" parent="1">
                    <mxGeometry x="410" y="485" width="100" height="430" as="geometry"/>
                </mxCell>
                <mxCell id="374" value="" style="html=1;points=[];perimeter=orthogonalPerimeter;fillColor=#008a00;strokeColor=#005700;fontColor=#ffffff;fontSize=14;" vertex="1" parent="373">
                    <mxGeometry x="45" y="60" width="10" height="350" as="geometry"/>
                </mxCell>
                <mxCell id="375" value="Create" style="html=1;verticalAlign=bottom;labelBackgroundColor=none;endArrow=open;endFill=0;fontColor=#006600;strokeWidth=3;fillColor=#f0a30a;strokeColor=#BD7000;fontSize=14;" edge="1" parent="1">
                    <mxGeometry width="160" relative="1" as="geometry">
                        <mxPoint x="675" y="505" as="sourcePoint"/>
                        <mxPoint x="510" y="505" as="targetPoint"/>
                    </mxGeometry>
                </mxCell>
                <mxCell id="376" value="Guardar" style="html=1;verticalAlign=bottom;labelBackgroundColor=none;endArrow=open;endFill=0;fontColor=#006600;strokeWidth=3;fillColor=#f0a30a;strokeColor=#BD7000;fontSize=14;" edge="1" parent="1">
                    <mxGeometry width="160" relative="1" as="geometry">
                        <mxPoint x="180" y="655" as="sourcePoint"/>
                        <mxPoint x="460" y="655" as="targetPoint"/>
                    </mxGeometry>
                </mxCell>
                <mxCell id="377" value="" style="html=1;points=[];perimeter=orthogonalPerimeter;fillColor=#008a00;strokeColor=#005700;shadow=0;fontColor=#ffffff;labelBackgroundColor=#ffffff;fontSize=14;" vertex="1" parent="1">
                    <mxGeometry x="460" y="635" width="10" height="40" as="geometry"/>
                </mxCell>
                <mxCell id="378" value="" style="shape=umlDestroy;strokeColor=#000000;fontSize=14;" vertex="1" parent="1">
                    <mxGeometry x="445" y="895" width="30" height="30" as="geometry"/>
                </mxCell>
                <mxCell id="379" value="" style="shape=umlDestroy;strokeColor=#000000;fontSize=14;" vertex="1" parent="1">
                    <mxGeometry x="445" y="435" width="30" height="30" as="geometry"/>
                </mxCell>
                <mxCell id="380" value="GestorAnálisis" style="shape=umlLifeline;perimeter=lifelinePerimeter;whiteSpace=wrap;html=1;container=1;collapsible=0;recursiveResize=0;outlineConnect=0;fillColor=#a20025;strokeColor=#6F0000;fontColor=#ffffff;fontSize=14;" vertex="1" parent="1">
                    <mxGeometry x="1100" y="100" width="100" height="1040" as="geometry"/>
                </mxCell>
                <mxCell id="381" value="" style="html=1;points=[];perimeter=orthogonalPerimeter;fillColor=#a20025;strokeColor=#6F0000;fontColor=#ffffff;fontSize=14;" vertex="1" parent="380">
                    <mxGeometry x="45" y="70" width="10" height="950" as="geometry"/>
                </mxCell>
                <mxCell id="382" value="int respuestaAnalisis" style="html=1;verticalAlign=bottom;labelBackgroundColor=none;endArrow=open;endFill=0;fontColor=#006600;strokeWidth=3;fillColor=#f0a30a;strokeColor=#BD7000;fontSize=14;" edge="1" parent="1" target="363">
                    <mxGeometry x="0.4709" width="160" relative="1" as="geometry">
                        <mxPoint x="1135" y="695" as="sourcePoint"/>
                        <mxPoint x="970" y="695" as="targetPoint"/>
                        <mxPoint as="offset"/>
                    </mxGeometry>
                </mxCell>
                <mxCell id="383" value="guardarContacto(Contacto)" style="html=1;verticalAlign=bottom;labelBackgroundColor=none;endArrow=open;endFill=0;fontColor=#006600;strokeWidth=3;fillColor=#f0a30a;strokeColor=#BD7000;exitX=0.95;exitY=0.341;exitDx=0;exitDy=0;exitPerimeter=0;fontSize=14;" edge="1" parent="1" target="365">
                    <mxGeometry width="160" relative="1" as="geometry">
                        <mxPoint x="680" y="735" as="sourcePoint"/>
                        <mxPoint x="944.64" y="735" as="targetPoint"/>
                    </mxGeometry>
                </mxCell>
                <mxCell id="384" value="VPrincipal" style="shape=umlLifeline;perimeter=lifelinePerimeter;whiteSpace=wrap;html=1;container=1;collapsible=0;recursiveResize=0;outlineConnect=0;fillColor=#008a00;strokeColor=#005700;fontColor=#ffffff;fontSize=14;" vertex="1" parent="1">
                    <mxGeometry x="410" y="945" width="100" height="230" as="geometry"/>
                </mxCell>
                <mxCell id="385" value="" style="html=1;points=[];perimeter=orthogonalPerimeter;fillColor=#008a00;strokeColor=#005700;fontColor=#ffffff;fontSize=14;" vertex="1" parent="384">
                    <mxGeometry x="45" y="60" width="10" height="140" as="geometry"/>
                </mxCell>
                <mxCell id="386" value="Create" style="html=1;verticalAlign=bottom;labelBackgroundColor=none;endArrow=open;endFill=0;fontColor=#006600;strokeWidth=3;fillColor=#f0a30a;strokeColor=#BD7000;fontSize=14;" edge="1" parent="1">
                    <mxGeometry width="160" relative="1" as="geometry">
                        <mxPoint x="672.5" y="965" as="sourcePoint"/>
                        <mxPoint x="507.5" y="965" as="targetPoint"/>
                    </mxGeometry>
                </mxCell>
                <mxCell id="392" value="Visible (true)" style="html=1;verticalAlign=bottom;labelBackgroundColor=none;endArrow=open;endFill=0;fontColor=#006600;strokeWidth=3;fillColor=#f0a30a;strokeColor=#BD7000;fontSize=14;" edge="1" parent="1" target="361">
                    <mxGeometry width="160" relative="1" as="geometry">
                        <mxPoint x="675" y="295" as="sourcePoint"/>
                        <mxPoint x="600" y="295" as="targetPoint"/>
                    </mxGeometry>
                </mxCell>
                <mxCell id="393" value="Visible (true)" style="html=1;verticalAlign=bottom;labelBackgroundColor=none;endArrow=open;endFill=0;fontColor=#006600;strokeWidth=3;fillColor=#f0a30a;strokeColor=#BD7000;fontSize=14;" edge="1" parent="1">
                    <mxGeometry width="160" relative="1" as="geometry">
                        <mxPoint x="675.3299999999999" y="545" as="sourcePoint"/>
                        <mxPoint x="459.99666666666644" y="545" as="targetPoint"/>
                    </mxGeometry>
                </mxCell>
                <mxCell id="394" value="Visible (true)" style="html=1;verticalAlign=bottom;labelBackgroundColor=none;endArrow=open;endFill=0;fontColor=#006600;strokeWidth=3;fillColor=#f0a30a;strokeColor=#BD7000;fontSize=14;" edge="1" parent="1">
                    <mxGeometry width="160" relative="1" as="geometry">
                        <mxPoint x="675.3299999999999" y="1005" as="sourcePoint"/>
                        <mxPoint x="459.99666666666644" y="1005" as="targetPoint"/>
                    </mxGeometry>
                </mxCell>
                <mxCell id="395" value="Alert.INFO" style="shape=umlLifeline;perimeter=lifelinePerimeter;whiteSpace=wrap;html=1;container=1;collapsible=0;recursiveResize=0;outlineConnect=0;fontColor=#ffffff;strokeColor=#005700;fillColor=#008A00;fontSize=14;" vertex="1" parent="1">
                    <mxGeometry x="500" y="730" width="100" height="130" as="geometry"/>
                </mxCell>
                <mxCell id="396" value="" style="html=1;points=[];perimeter=orthogonalPerimeter;strokeColor=#2D7600;fontColor=#ffffff;fillColor=#008A00;fontSize=14;" vertex="1" parent="395">
                    <mxGeometry x="45" y="55" width="10" height="60" as="geometry"/>
                </mxCell>
                <mxCell id="397" value="Create" style="html=1;verticalAlign=bottom;labelBackgroundColor=none;endArrow=open;endFill=0;fontColor=#006600;strokeWidth=3;fillColor=#60a917;strokeColor=#2D7600;fontSize=14;exitX=0.033;exitY=0.574;exitDx=0;exitDy=0;exitPerimeter=0;" edge="1" parent="1" source="364">
                    <mxGeometry width="160" relative="1" as="geometry">
                        <mxPoint x="670" y="750" as="sourcePoint"/>
                        <mxPoint x="600" y="750" as="targetPoint"/>
                    </mxGeometry>
                </mxCell>
                <mxCell id="398" value="" style="shape=umlDestroy;dashed=0;fillColor=#60a917;strokeColor=#2D7600;fontColor=#ffffff;fontSize=14;" vertex="1" parent="1">
                    <mxGeometry x="530" y="840" width="40" height="40" as="geometry"/>
                </mxCell>
                <mxCell id="399" value="OK" style="html=1;verticalAlign=bottom;labelBackgroundColor=none;endArrow=open;endFill=0;fontColor=#006600;strokeWidth=3;fillColor=#f0a30a;strokeColor=#BD7000;entryX=0.057;entryY=0.165;entryDx=0;entryDy=0;entryPerimeter=0;fontSize=14;" edge="1" parent="1" target="396">
                    <mxGeometry width="160" relative="1" as="geometry">
                        <mxPoint x="180" y="795" as="sourcePoint"/>
                        <mxPoint x="540" y="840" as="targetPoint"/>
                    </mxGeometry>
                </mxCell>
            </root>
        </mxGraphModel>
    </diagram>
</mxfile>